<svg width="461" height="80" viewBox="0 0 461 80" fill="none" xmlns="http://www.w3.org/2000/svg" preserveAspectRatio="none"><path d="M1.972 76.507c.392-.873.716-1.776.972-2.699.393-.809.93-1.54 1.583-2.159 1.8-1.943 2.375-3.023 2.34-4.067a2.627 2.627 0 0 1 .863-1.655c.936-.972.936-1.008.684-2.771s-.216-1.98.755-4.426a8.17 8.17 0 0 0 .972-4.75 7.197 7.197 0 0 1 .792-4.427 13.529 13.529 0 0 1 1.871-3.131 2.447 2.447 0 0 1 2.123-1.08c.612 0 1.152 0 1.116-.324-.036-.324.252-.288.576-.324a.755.755 0 0 0 .72-.503c0-.324.395-.396.971-.324.576.072 1.368-.468 1.08-1.98-.288-1.511 0-1.295.936-2.663a7.449 7.449 0 0 0 1.979-4.822 52.58 52.58 0 0 0-1.584-8.061c-.467-1.584-.54-2.195-.323-2.843a5.938 5.938 0 0 0 0-2.951 12.237 12.237 0 0 1-.252-3.599c.252-1.98 0-3.095-1.98-5.722-1.979-2.627-1.907-3.599-.971-4.282A46.1 46.1 0 0 1 28.17 5.468h92.595l19.002-.252h10.544c1.763 0 9.861 0 22.456-.288l13.459-1.331h6.334a37.396 37.396 0 0 1 7.558 0c1.198.082 2.4.082 3.598 0h23.14c9.357 0 20.549 0 29.726-.252l20.585-.576h19.901c2.843 0 5.758 0 6.477-.288a17.348 17.348 0 0 1 3.599 0c1.332 0 7.917 0 14.395-.216l17.31-.755h9.789c2.591 0 5.038-.252 5.038-.216 1.678.084 3.36.084 5.038 0h9.033c7.197 0 17.202-.252 17.67-.468a53.723 53.723 0 0 1 5.578-.216h45.2c4.606 0 9.501 0 10.796.216l3.347.396c1.44 0 1.691.468 1.583 1.979a29.765 29.765 0 0 1-.791 3.923c-.792 3.13-.756 3.958.216 5.794a19.596 19.596 0 0 1 1.403 3.598 20.943 20.943 0 0 0 1.692 3.383c1.727 3.203 2.087 8.925 1.079 17.994a18.741 18.741 0 0 0 .252 6.046c.66 2.246.571 4.646-.252 6.837a7.926 7.926 0 0 0-.288 4.21l.216 3.132 2.088 3.599a11.202 11.202 0 0 1 2.375 6.19 10.152 10.152 0 0 1-.936 6.945l-.756.936-5.146.288c-2.807 0-6.981.251-9.321.216-6.873 0-24.219 0-30.841.251-13.459.324-20.765.468-24.471.432h-19.002a23.964 23.964 0 0 0-6.549.54 2.953 2.953 0 0 1-1.872.18h-8.565c-4.138 0-9.105.252-11.084.216H298.22c-7.665 0-15.798.18-23.787.396h-12.092c-2.591 0-9.249 0-14.719.216-9.717.36-12.596.395-22.636.216H194.972c-4.801.17-9.609.039-14.395-.396a54.571 54.571 0 0 0-8.205 0l-7.485.216h-30.733l-6.118.611H99.642c-2.123 0-5.398 0-12.848.252H22.773c-9.285 0-15.367 0-18.498.252-3.886.252-3.85.288-2.303-3.383v.216z" fill="#F2E9D8"/></svg>